<svg id="logo-light" xmlns="http://www.w3.org/2000/svg" width="201.42" height="40" viewBox="0 0 201.42 40">
  <path id="Path_1" data-name="Path 1" d="M282.1,53h8.361l-.6,3.607-2.186-.109-1.147,7.486h-3.989l1.2-7.486-2.24.109Z" transform="translate(-128.221 -24.202)" fill="#fff"/>
  <path id="Path_2" data-name="Path 2" d="M298.349,53h3.989l-1.749,10.984H296.6Z" transform="translate(-135.07 -24.202)" fill="#fff"/>
  <path id="Path_3" data-name="Path 3" d="M309.049,53h4.809c2.459,0,4.372,1.038,3.934,3.825a3.192,3.192,0,0,1-2.568,2.842v.109a2.305,2.305,0,0,1,.546.656l1.8,3.552h-4.59l-1.2-3.5h-.055l-.546,3.5H307.3Zm3.115,4.863h.273c.656,0,1.311-.109,1.475-.929.109-.82-.437-.929-1.147-.929h-.328Z" transform="translate(-139.923 -24.202)" fill="#fff"/>
  <path id="Path_4" data-name="Path 4" d="M329.049,53h7.377l-.492,3.005H332.6l-.164,1.038h3.06L335,59.885h-3.06l-.164,1.093h3.5l-.492,3.005H327.3Z" transform="translate(-148.994 -24.202)" fill="#fff"/>
  <path id="Path_5" data-name="Path 5" d="M344.985,59.913l.164.164a3.546,3.546,0,0,0,2.35.984c.383,0,1.038-.164,1.148-.656.055-.492-.437-.546-.765-.6l-.765-.164c-1.53-.273-2.678-1.2-2.4-2.9.437-2.623,3.005-4.044,5.41-4.044a5.832,5.832,0,0,1,3.333.984l-1.53,2.787a3.367,3.367,0,0,0-2.186-.82c-.328,0-.874.109-.929.6-.055.383.437.492.71.546l.874.219c1.639.383,2.678,1.257,2.4,3.115-.437,2.623-3.005,3.934-5.355,3.934a9.2,9.2,0,0,1-4.044-.984Z" transform="translate(-156.296 -24.066)" fill="#fff"/>
  <path id="Path_6" data-name="Path 6" d="M23.323,8.77l-2.9,13.77H10.7L13.979,6.693C15.236,1.284,21.083.355,22.886.3H51.137L44.853,6.857H25.563a2.119,2.119,0,0,0-2.24,1.913" transform="translate(-5.399 -0.3)" fill="#fff" fill-rule="evenodd"/>
  <path id="Path_7" data-name="Path 7" d="M52,22.531,71.563,3.078C73.585,1.11,77.41.455,78.995.4H92.984l-4.7,22.186H78.831L82.765,3.3l-13.333,13.5h10l-4.044,5.738Z" transform="translate(-24.131 -0.345)" fill="#fff" fill-rule="evenodd"/>
  <path id="Path_8" data-name="Path 8" d="M125.1,22.531,129.745.4h9.836l-3.443,16.23h18.852l-4.208,5.956Z" transform="translate(-57.286 -0.345)" fill="#fff" fill-rule="evenodd"/>
  <path id="Path_9" data-name="Path 9" d="M183.8.4l-4.7,22.186h9.836l2.131-10.765,10.492,10.71h11.475L202.16,11.985,218.39.4H204.51L191.231,10.892,193.581.455Z" transform="translate(-81.778 -0.345)" fill="#fff" fill-rule="evenodd"/>
  <path id="Path_10" data-name="Path 10" d="M241.9,22.677h29.016l4.7-6.011H252.61l.492-2.35H271.19l1.093-5.246H254.3c.437-1.421.765-2.3,1.967-2.35h19.4L276.927.6H253.7c-3.934,0-7.486,1.421-8.634,6.448Z" transform="translate(-110.261 -0.436)" fill="#fff" fill-rule="evenodd"/>
  <path id="Path_11" data-name="Path 11" d="M303.9,22.586,308.49.4H331.66c4.481,0,9.071,2.35,7.978,7.322l-3.005,14.863H326.8l2.951-13.607a1.812,1.812,0,0,0-1.585-2.3H317.288l-3.279,15.9Z" transform="translate(-138.381 -0.345)" fill="#fff" fill-rule="evenodd"/>
  <path id="Path_12" data-name="Path 12" d="M1,19.6H37.612l-9.781,9.891c-7.213-6.23-16.23-8.962-26.339-9.126Z" transform="translate(-1 -9.054)" fill="#ec1651" fill-rule="evenodd"/>
</svg>
