<svg width="180" height="32" viewBox="0 0 180 32" fill="none" xmlns="http://www.w3.org/2000/svg">
<path fill-rule="evenodd" clip-rule="evenodd" d="M99.3513 17.1281C99.5503 17.2737 99.8003 17.6134 99.8252 18.0011C92.5682 21.471 88.7282 29.4053 81.2467 32C80.9973 31.6846 80.8732 31.3945 80.7728 31.0536C88.0049 28.5554 91.6958 20.5252 99.3513 17.1281ZM87.2073 15.5756C88.3042 17.6619 89.7004 20.1855 90.723 22.2955C89.3269 23.6792 87.6795 25.4252 85.9846 27.003C84.0397 28.7744 81.4961 30.1806 80.499 30.1806C80.1498 30.1806 80.0002 29.9137 80.0002 29.6711C80.0002 27.6813 82.2444 26.6622 83.1174 25.0364C83.9161 23.533 84.2392 21.9552 84.8373 20.4044C85.4614 18.8746 86.0356 16.9588 87.2073 15.5756ZM31.9446 7.73956C36.8582 7.73956 40.3496 10.165 40.3496 15.2122C40.3496 20.4767 36.6836 25.5465 29.5763 25.5465C24.6882 25.5465 20.8233 23.169 20.8233 18.1478C20.8233 11.9364 25.4869 7.73956 31.9446 7.73956ZM53.2424 7.73956C58.1554 7.73956 61.6462 10.165 61.6462 15.2122C61.6462 20.4767 57.9802 25.5465 50.8729 25.5465C45.9854 25.5465 42.1199 23.169 42.1199 18.1478C42.1199 11.9364 46.7841 7.73956 53.2424 7.73956ZM178.429 22.151C179.301 22.151 180 22.8299 180 23.6792C180 24.5279 179.301 25.2068 178.429 25.2068C177.556 25.2068 176.858 24.5279 176.858 23.6792C176.858 22.8299 177.556 22.151 178.429 22.151ZM152.069 8.05501C152.368 8.05501 152.593 8.24858 152.617 8.54032L154.364 24.6978C154.389 24.9399 154.164 25.1831 153.914 25.1831H147.058C146.733 25.1831 146.533 24.9647 146.509 24.6978L146.309 22.8773C146.284 22.6363 146.134 22.5144 145.885 22.5144H140.573C140.324 22.5144 140.124 22.6363 139.975 22.8773L138.827 24.6978C138.678 24.9399 138.404 25.1831 138.03 25.1831H135.486C135.237 25.1831 135.136 24.9399 135.287 24.6978L145.337 8.54032C145.561 8.15152 145.885 8.05501 146.134 8.05501H152.069ZM171.422 8.10299C176.184 8.10299 177.731 10.3111 177.731 12.7619C177.731 14.2416 177.182 17.2979 174.314 18.9717C174.189 19.045 173.94 19.1906 174.039 19.6031L175.187 24.6741C175.237 24.9399 175.136 25.1831 174.811 25.1831H167.48C167.231 25.1831 166.957 25.0364 166.882 24.6978L165.959 20.5495C165.911 20.3068 165.859 20.1122 165.611 20.1122H165.362C165.112 20.1122 164.938 20.234 164.862 20.5727L163.866 24.6978C163.814 24.9399 163.491 25.1831 163.241 25.1831H156.184C155.935 25.1831 155.761 24.9399 155.81 24.6978L159.726 8.58885C159.826 8.22487 159.975 8.10299 160.348 8.10299H171.422ZM12.195 7.73956C14.1144 7.73956 15.8105 8.15152 17.2821 8.97655C17.6318 9.17122 17.6318 9.48667 17.4822 9.70396L16.3099 11.4274C16.1602 11.6452 15.9851 11.7434 15.5866 11.499C14.7635 11.0137 13.666 10.6503 12.5192 10.6503C11.1231 10.6503 9.8255 11.0386 9.5517 12.0092L7.33185 21.1793C7.10737 22.0771 7.80632 22.5144 8.77906 22.5144H9.37711C9.62596 22.5144 9.77675 22.3926 9.8255 22.151L11.0987 16.8854C11.1474 16.6428 11.4218 16.4012 11.7211 16.4012H18.5791C18.8285 16.4012 19.0025 16.6428 18.9532 16.8854L17.0576 24.6978C17.0077 24.9399 16.6829 25.1831 16.434 25.1831H6.68392C1.96986 25.1831 0 21.6403 0 18.2437C0 11.1593 5.58704 7.73956 12.195 7.73956ZM76.1098 8.10299C81.0727 8.10299 82.9434 11.2823 82.9434 14.5317C82.9434 19.8452 79.3024 25.1831 72.992 25.1831H62.2448C61.9942 25.1831 61.8202 24.9399 61.8707 24.6978L65.786 8.58885C65.8852 8.22487 66.0343 8.10299 66.4096 8.10299H76.1098ZM137.456 8.10299C137.706 8.10299 137.879 8.3462 137.83 8.58885L137.331 10.6503C137.281 10.8935 136.957 11.1356 136.707 11.1356H131.397C131.172 11.1356 130.848 11.3788 130.798 11.6215L130.075 14.5808C130.049 14.7749 130.149 14.8719 130.374 14.8719H133.641C133.89 14.8719 134.065 15.1146 134.015 15.3572L133.541 17.4198C133.491 17.6619 133.167 17.9051 132.917 17.9051H129.675C129.451 17.9051 129.276 18.0011 129.227 18.1715L128.329 21.787C128.279 22.0297 128.354 22.151 128.603 22.151H134.015C134.264 22.151 134.439 22.3926 134.388 22.6363L133.89 24.6978C133.839 24.9399 133.516 25.1831 133.266 25.1831H119.925C119.676 25.1831 119.501 24.9399 119.552 24.6978L123.466 8.58885C123.566 8.22487 123.715 8.10299 124.089 8.10299H137.456ZM110.773 8.10299C111.098 8.10299 111.322 8.29711 111.422 8.58885L113.117 13.9013L117.506 8.58885C117.755 8.29711 118.03 8.10299 118.429 8.10299H121.919C122.219 8.10299 122.269 8.27285 121.995 8.58885L114.115 17.8808L112.444 24.6978C112.394 24.9399 112.071 25.1831 111.82 25.1831H104.762C104.513 25.1831 104.339 24.9399 104.388 24.6978L106.084 17.7827L103.117 8.58885C103.017 8.27285 103.142 8.10299 103.467 8.10299H110.773ZM178.429 22.4896C177.754 22.4896 177.205 23.0229 177.205 23.6792C177.205 24.3338 177.754 24.8676 178.429 24.8676C179.103 24.8676 179.65 24.3338 179.65 23.6792C179.65 23.0229 179.103 22.4896 178.429 22.4896ZM178.454 22.8536C178.778 22.8536 179.126 22.9269 179.126 23.3146C179.126 23.5821 178.952 23.752 178.678 23.7999L179.151 24.5522H178.778L178.353 23.8242H178.154V24.5522H177.805V22.8536H178.454ZM178.477 23.1211H178.154V23.5573H178.477C178.653 23.5573 178.778 23.533 178.778 23.3146C178.778 23.2176 178.752 23.1211 178.477 23.1211ZM32.0949 10.3591C30.9725 10.3591 30.6737 10.8455 30.3245 12.2998L28.1557 21.1556C27.8802 22.2955 28.0803 22.9269 29.1523 22.9269C30.1993 22.9269 30.574 22.4411 30.8738 21.2526L33.1169 12.1062C33.4168 10.9178 33.0421 10.3591 32.0949 10.3591ZM53.3915 10.3591C52.2685 10.3591 51.9703 10.8455 51.6211 12.2998L49.4523 21.1556C49.1774 22.2955 49.3763 22.9269 50.4494 22.9269C51.4964 22.9269 51.8706 22.4411 52.1699 21.2526L54.4141 12.1062C54.7128 10.9178 54.3398 10.3591 53.3915 10.3591ZM73.7153 10.7722C73.4659 10.7722 73.2669 10.8935 73.2165 11.1356L70.5488 22.0771C70.4734 22.3926 70.5738 22.5144 70.8226 22.5144C72.4433 22.5144 73.0425 22.5144 73.3168 21.4225L75.5611 12.1062C75.8354 10.9663 75.4857 10.7722 73.7153 10.7722ZM92.9928 12.5915C93.4661 13.8043 94.1395 14.8002 95.1378 15.7703C96.1842 15.4532 96.3588 14.2416 97.2823 13.8043L98.9517 16.3279C96.3339 17.9536 93.715 19.5794 91.4464 21.7379C90.1488 19.4575 88.9777 17.3702 87.9295 15.1868C89.6012 14.2416 91.2468 13.2704 92.9928 12.5915ZM144.987 14.8477L142.419 19.0941C142.269 19.3368 142.318 19.4575 142.569 19.4575H145.436C145.686 19.4575 145.809 19.3368 145.784 19.0941L145.337 14.8477C145.312 14.6293 145.137 14.605 144.987 14.8477ZM167.655 10.7722C167.406 10.7722 167.206 10.8935 167.157 11.1356L165.735 17.0078C165.661 17.3227 165.76 17.4441 166.01 17.4441C167.631 17.4441 168.203 17.4441 168.478 16.3516L169.5 12.1062C169.775 10.9663 169.426 10.7722 167.655 10.7722ZM117.606 0V0.169306C117.606 3.22675 113.266 4.1003 110.199 4.1003C108.653 4.1003 107.032 3.95416 105.536 3.88191V4.07604L106.932 4.60988C106.882 5.62847 105.213 5.48288 104.313 5.84631C104.489 6.06525 104.888 5.9191 104.888 6.18713V6.25937C104.289 6.91454 103.441 7.15719 102.593 7.15719C102.044 7.15719 101.473 7.06013 100.948 6.84229L100.774 7.01215V7.59342C100.774 8.07872 100.648 10.069 100.05 10.069C99.7011 10.069 99.476 9.77675 99.1529 9.60745C98.9024 10.2626 99.0027 11.1847 98.4795 11.7434C98.0305 11.7434 97.6808 11.1593 97.2823 11.0137C96.7823 12.0571 96.4835 13.1734 95.6848 14.1192C94.1889 13.8776 93.8901 11.5244 93.8901 10.0922C93.8901 9.53465 93.94 8.92801 94.0641 8.36991C93.491 7.54544 93.0421 6.47776 93.0421 5.41008C93.0421 1.52872 97.3066 0.363981 100.324 0.363981C103.366 0.363981 106.284 0.727962 109.401 0.727962C112.169 0.727962 115.012 0.485308 117.606 0ZM87.6313 11.4274C89.5768 11.4274 90.3982 11.6452 91.8959 11.7671V11.9606C90.4747 12.7129 89.027 13.5622 87.5565 14.0464C87.6058 13.4166 87.6795 12.8105 87.6795 12.179C87.6795 11.9364 87.6795 11.6937 87.6313 11.4274ZM93.0421 8.27285L92.8431 10.7231C92.4684 10.7722 92.0948 10.7722 91.6958 10.7722C90.8222 10.7722 89.9255 10.7231 88.7282 10.626L92.7428 8.27285H93.0421ZM92.3936 3.61555C92.2201 4.29387 92.1192 5.02184 92.1192 5.77461C92.1192 6.3079 92.1697 6.93935 92.3936 7.42356L87.0084 10.4325C86.3338 9.4613 85.6615 8.46697 85.1864 7.59342C87.73 5.993 90.1001 4.75492 92.3936 3.61555ZM94.9621 6.35643L95.0873 6.55111C95.86 6.62335 95.7115 7.61768 96.3588 7.81291L96.0595 6.45349L94.9621 6.35643ZM100.199 2.15907C99.9998 2.15907 99.8003 2.2804 99.6512 2.54732C99.2266 2.93667 98.5532 2.88703 98.0305 2.95983C97.8559 3.56646 97.157 3.93044 96.6077 4.00379C96.8577 4.12402 97.157 4.22108 97.5062 4.22108C97.6564 4.22108 97.8304 4.19736 98.0039 4.12402C98.3293 3.66297 98.9517 3.59128 99.5259 3.59128C100.324 3.59128 100.224 2.71717 100.774 2.71717C100.823 2.71717 100.898 2.74089 100.998 2.7657C101.246 2.69346 101.671 2.52305 101.671 2.30521C101.546 2.35319 101.372 2.37801 101.271 2.37801C100.898 2.37801 100.499 2.15907 100.199 2.15907Z" fill="#fedb00"/>
</svg>
